# xmcd
# 
# Track frame offsets:
#     150
#     18554
#     39446
#     60384
#     76610
#     99204
#     115737
#     132121
#     148366
#     167389
# 
# Disc length: 2295
# 
# Revision: 0
# Processed by: cddbd v1.5.2PL0 Copyright (c) Steve Scherf et al.
# Submitted via: fre:ac v1.0.17
# 
DISCID=7108f50a
DTITLE=Paul Myrow - Love Takes Me
DYEAR=0
DGENRE=Blues
TTITLE0=Into the Red
TTITLE1=Lying Down With You
TTITLE2=Like The Rest of Me
TTITLE3=I've Tried to Let You In
TTITLE4=Something to Prove
TTITLE5=What's Inside
TTITLE6=Looking for You
TTITLE7=Middle Ground
TTITLE8=I Want You to Live
TTITLE9=Freight Train
EXTD=
EXTT0=
EXTT1=
EXTT2=
EXTT3=
EXTT4=
EXTT5=
EXTT6=
EXTT7=
EXTT8=
EXTT9=
PLAYORDER=
